<svg id="Слой_1" data-name="Слой 1" xmlns="http://www.w3.org/2000/svg" viewBox="0 0 457.04 99.44"><defs><style>.cls-1{fill:#fff;}.cls-1,.cls-2,.cls-4{stroke:#198585;stroke-miterlimit:10;}.cls-2,.cls-4{fill:none;}.cls-3{fill:#ededed;}.cls-4{stroke-width:5px;}.cls-5,.cls-6{fill:#198585;}.cls-6{fill-rule:evenodd;}</style></defs><path class="cls-1" d="M98.87,120c-3.76,5.73-11.78,25.72-11.78,25.72L77,170.86c-2.26,6.44-4.21,12.37-5.94,17.83-.67,2.11-1.57,5.08-.09,7.76a8,8,0,0,0,3.62,3.22c1.28.47,3.54,1.29,6.37,2.26,23.69,8.12,28.36,8.42,41.49,11.61,6.33,1.54,11,2.8,14.52,3.94a8,8,0,0,0,4.37.38,7.17,7.17,0,0,0,5.1-3.85q2.37-5.2,4.64-10.69a330.45,330.45,0,0,0,16.37-51.12l0-2.38a50.77,50.77,0,0,0-16.81-18.49c-1-.66-2-1.27-3.05-1.83L102,119.6a8.07,8.07,0,0,0-1.72.07A7.45,7.45,0,0,0,98.87,120Z" transform="translate(-69.63 -119.08)"/><path class="cls-2" d="M75.32,175.9l.52.19.72.21c3.5.86,7,1.92,10.42,2.9,16.2,4.53,19.29,5.52,24.74,6.64a134.45,134.45,0,0,0,17.2,2.38,9,9,0,0,0,3.51-1.55,8.73,8.73,0,0,0,2.91-3.74L148,147.87q1.61-5.06,3.19-10.1a8.92,8.92,0,0,0,.26-1,11.07,11.07,0,0,0,0-4.49" transform="translate(-69.63 -119.08)"/><path class="cls-3" d="M148.75,236.38" transform="translate(-69.63 -119.08)"/><path class="cls-2" d="M144.71,216.11q-6.14-14.72-12.28-29.44" transform="translate(-69.63 -119.08)"/><path class="cls-4" d="M93.68,148.72,99.91,134c1.36-3.2,4.52-5.31,7-4.72l13.83,3.23c2.54.6,3.5,3.67,2.14,6.87l-6.24,14.73c-1.16,2.76-4.75,5.26-7,4.72l-13.82-3.23a3.63,3.63,0,0,1-2.61-2.77A7,7,0,0,1,93.68,148.72Z" transform="translate(-69.63 -119.08)"/><rect class="cls-5" x="110.45" y="152.79" width="5.48" height="13.7" rx="2.74" transform="translate(-122.82 -62.47) rotate(-22.9)"/><path class="cls-6" d="M206.4,149.92q-9.71-.37-19.51-.11a1.18,1.18,0,0,0-.64.32,7.09,7.09,0,0,0-6,6.15q-.21,15.69,0,31.39a7.37,7.37,0,0,0,6.47,6.68l10,.21a5.24,5.24,0,0,1,5.62,3.92,57.69,57.69,0,0,0,.43,6.58,1.52,1.52,0,0,0,.74.53,1.91,1.91,0,0,0,2.65-1.17l.21-6.36a5,5,0,0,1,2.44-2.86,32.81,32.81,0,0,1,4-.85l.53-.53a5.4,5.4,0,0,0,0-2.12,1,1,0,0,0-.74-.74l-24.81-.22a4.71,4.71,0,0,1-3.93-3.92q-.21-14.2,0-28.42a2,2,0,0,1,3.61.21l.21,27.57.74.75q12.52,0,25,.42c2.72.7,4,2.46,3.82,5.3q-.12,6-6.15,5.73a2.49,2.49,0,0,0-1,.74,48.37,48.37,0,0,0-.42,6.15,4.38,4.38,0,0,1-3.29,3.93,21.45,21.45,0,0,1-4.24,0,4.63,4.63,0,0,1-3.5-3.93l-.21-6.15a3.42,3.42,0,0,0-1.17-.74l-11-.21q-9.62-1.93-10-11.77V157.55q.65-10.56,11.24-11.34,9.76-.22,19.52,0,8.57,1.14,10.07,9.65.21,11.34,0,22.69a1.57,1.57,0,0,1-1,.95,1.88,1.88,0,0,1-2.44-.95q-.1-10.81-.22-21.63Q212.52,150.79,206.4,149.92Z" transform="translate(-69.63 -119.08)"/><path class="cls-6" d="M232.7,189.15a15.17,15.17,0,0,1-.21-2.33q-.11-18.88.21-37.75a5.93,5.93,0,0,1,10.5.42q.21,18.24,0,36.48a.92.92,0,0,1-1,1,1.89,1.89,0,0,1-2.44-1l-.21-35.42a2.19,2.19,0,0,0-3.6.21q-.23,18,0,36.06.69,7.05,7.74,7.74,9,.21,18,0,6.48-.52,7.75-6.89l.21-40.72a2.12,2.12,0,0,1,3.39,0q.21,20,0,40.08-.69,10.46-11.13,11.14-10.31.3-20.58-.22Q234,196.56,232.7,189.15Z" transform="translate(-69.63 -119.08)"/><path class="cls-6" d="M299.72,187.46q-.3-4.77-.21-9.55a4.78,4.78,0,0,1,3.39-3.71l13.79-.21a1.62,1.62,0,0,0,1.27-1.91,1.58,1.58,0,0,0-.85-1.7l-13.79-.21a4.83,4.83,0,0,1-3.92-4.56,61.94,61.94,0,0,1,0-7.21,2.09,2.09,0,0,1,2.65-1,1.4,1.4,0,0,1,.74.53q.1,3.71.22,7.42a6.73,6.73,0,0,0,.74.95q7,.42,14,.43a4.48,4.48,0,0,1,3.71,3.28,19.39,19.39,0,0,1,0,4,4.28,4.28,0,0,1-3.93,3.5q-7,0-14,.43a5.53,5.53,0,0,1-.53.74,57.82,57.82,0,0,0,0,7.21,1.86,1.86,0,0,0,.95,1l23.75.21q5.27.33,5.09,5.62a4.82,4.82,0,0,1-4,5.41q-16.42.21-32.87,0A4.65,4.65,0,0,1,292,194q-.21-21.94,0-43.9a4.64,4.64,0,0,1,4.13-3.92q17.82-.22,35.63,0a1.47,1.47,0,0,1,1.06,1.69,1.6,1.6,0,0,1-.84,1.7l-35.21.21a2.49,2.49,0,0,0-1,.74q-.36,10.8-.31,21.64t.31,21.63a1.62,1.62,0,0,0,1.17.74q15.48.21,31,0a2.18,2.18,0,0,0,1.16-2.86l-.74-.74-24.6-.22A4.66,4.66,0,0,1,299.72,187.46Z" transform="translate(-69.63 -119.08)"/><path class="cls-6" d="M348.7,146.11a5.09,5.09,0,0,1,2.12.31,1.48,1.48,0,0,1,.53.75q0,23.46.43,46.87a6.26,6.26,0,0,0,1,.53q15.48.21,31,0a1.38,1.38,0,0,0,1.16-1,5.4,5.4,0,0,0,0-2.12,1.52,1.52,0,0,0-.74-.53l-24-.21a1.77,1.77,0,0,1-1.06-1.91,1.49,1.49,0,0,1,1.06-1.69q12-.22,24,0,5.52,1.07,4.56,6.68a4.53,4.53,0,0,1-4.77,4.34q-16.12.22-32.24,0a4.49,4.49,0,0,1-3.71-3.92q-.21-23.64,0-47.29A4.22,4.22,0,0,0,348.7,146.11Z" transform="translate(-69.63 -119.08)"/><path class="cls-6" d="M404.7,146.1a5.1,5.1,0,0,1,2.12.32,1.46,1.46,0,0,1,.53.74l.21,46.45q1.77,2.08,3.61,0l.21-39.24a2.24,2.24,0,0,1,2.87-.53,1.52,1.52,0,0,1,.53.74q.21,19.72,0,39.45-1.3,5-6.47,4.14a4.59,4.59,0,0,1-4.35-3.71q-.21-23.76,0-47.51A1.46,1.46,0,0,1,404.7,146.1Z" transform="translate(-69.63 -119.08)"/><path class="cls-6" d="M459.63,183.21a2.36,2.36,0,0,0-.42-1.48,19.28,19.28,0,0,0-2.44-5.51L443,154.79a12.67,12.67,0,0,0-6-4.77,2.72,2.72,0,0,0-3.29.53q-.21,21.52,0,43.06c1.17,1.39,2.38,1.39,3.61,0l.21-35.63a2.34,2.34,0,0,1,3.39.21q.21,17.92,0,35.84-.9,4.49-5.51,4.24a4.82,4.82,0,0,1-5.3-3.6q-.23-22.48,0-45c1.09-2.89,3.17-4.06,6.25-3.49a11.41,11.41,0,0,1,5.94,2.75,27.83,27.83,0,0,1,3.92,4.35q7,10.77,14.21,21.42a19.2,19.2,0,0,1,2.76,6.58l.21,12.3a2.68,2.68,0,0,0,2.87.74,1,1,0,0,0,.74-.74q.21-21.53,0-43.06a2.2,2.2,0,0,0-3.61.21l-.21,14.85a1.51,1.51,0,0,1-1.69.85,1.49,1.49,0,0,1-1.7-1.06q-.21-7.64,0-15.27,1-4.15,5.3-4a6,6,0,0,1,4.88,1.91,4.45,4.45,0,0,1,.64,1.69q.21,22.38,0,44.76a4.15,4.15,0,0,1-3.08,3.49,7.78,7.78,0,0,1-5.94-.63,5.28,5.28,0,0,1-1.8-3.29C459.63,190.43,459.6,186.82,459.63,183.21Z" transform="translate(-69.63 -119.08)"/><path class="cls-6" d="M493.57,187.46q-.3-4.77-.22-9.55a4.8,4.8,0,0,1,3.4-3.71l13.78-.21a1.62,1.62,0,0,0,1.28-1.91,1.6,1.6,0,0,0-.85-1.7l-13.79-.21a4.81,4.81,0,0,1-3.92-4.56,61.94,61.94,0,0,1,0-7.21,2.09,2.09,0,0,1,2.65-1,1.4,1.4,0,0,1,.74.53l.21,7.42a7.64,7.64,0,0,0,.75.95q7,.42,14,.43a4.48,4.48,0,0,1,3.72,3.28,19.39,19.39,0,0,1,0,4,4.28,4.28,0,0,1-3.93,3.5q-7,0-14,.43a4.18,4.18,0,0,1-.53.74,61.94,61.94,0,0,0,0,7.21,1.91,1.91,0,0,0,1,1l23.75.21q5.27.33,5.09,5.62a4.82,4.82,0,0,1-4,5.41q-16.44.21-32.87,0a4.65,4.65,0,0,1-3.92-4.14q-.22-21.94,0-43.9a4.64,4.64,0,0,1,4.13-3.92q17.82-.22,35.63,0a1.47,1.47,0,0,1,1.06,1.69,1.59,1.59,0,0,1-.85,1.7l-35.2.21a2.49,2.49,0,0,0-1,.74q-.36,10.8-.32,21.64t.32,21.63a1.62,1.62,0,0,0,1.17.74q15.48.21,31,0a2.19,2.19,0,0,0,1.17-2.86c-.25-.25-.49-.5-.74-.74l-24.6-.22A4.65,4.65,0,0,1,493.57,187.46Z" transform="translate(-69.63 -119.08)"/></svg>