<svg width="310" height="336" viewBox="0 0 310 336" fill="none" xmlns="http://www.w3.org/2000/svg">
<circle cx="9.66509" cy="31.6651" r="3.28594" fill="#D9D9D9" fill-opacity="0.6"/>
<circle cx="47.1248" cy="31.6651" r="3.28594" fill="#D9D9D9" fill-opacity="0.6"/>
<circle cx="84.5845" cy="31.6651" r="3.28594" fill="#D9D9D9" fill-opacity="0.6"/>
<circle cx="9.66509" cy="69.1248" r="3.28594" fill="#D9D9D9" fill-opacity="0.6"/>
<circle cx="47.1248" cy="69.1248" r="3.28594" fill="#D9D9D9" fill-opacity="0.6"/>
<circle cx="84.5845" cy="69.1248" r="3.28594" fill="#D9D9D9" fill-opacity="0.6"/>
<circle cx="9.66509" cy="106.585" r="3.28594" fill="#D9D9D9" fill-opacity="0.6"/>
<circle cx="47.1248" cy="106.585" r="3.28594" fill="#D9D9D9" fill-opacity="0.6"/>
<circle cx="84.5845" cy="106.585" r="3.28594" fill="#D9D9D9" fill-opacity="0.6"/>
<circle cx="9.66509" cy="144.701" r="3.28594" fill="#D9D9D9" fill-opacity="0.6"/>
<circle cx="47.1248" cy="144.701" r="3.28594" fill="#D9D9D9" fill-opacity="0.6"/>
<circle cx="84.5845" cy="144.701" r="3.28594" fill="#D9D9D9" fill-opacity="0.6"/>
<circle cx="9.66509" cy="182.161" r="3.28594" fill="#D9D9D9" fill-opacity="0.6"/>
<circle cx="47.1248" cy="182.161" r="3.28594" fill="#D9D9D9" fill-opacity="0.6"/>
<circle cx="84.5845" cy="182.161" r="3.28594" fill="#D9D9D9" fill-opacity="0.6"/>
<circle cx="9.66509" cy="219.621" r="3.28594" fill="#D9D9D9" fill-opacity="0.6"/>
<circle cx="47.1248" cy="219.621" r="3.28594" fill="#D9D9D9" fill-opacity="0.6"/>
<circle cx="84.5845" cy="219.621" r="3.28594" fill="#D9D9D9" fill-opacity="0.6"/>
<circle cx="9.66509" cy="257.081" r="3.28594" fill="#D9D9D9" fill-opacity="0.6"/>
<circle cx="47.1248" cy="257.081" r="3.28594" fill="#D9D9D9" fill-opacity="0.6"/>
<circle cx="84.5845" cy="257.081" r="3.28594" fill="#D9D9D9" fill-opacity="0.6"/>
<circle cx="9.66509" cy="294.54" r="3.28594" fill="#D9D9D9" fill-opacity="0.6"/>
<circle cx="47.1248" cy="294.54" r="3.28594" fill="#D9D9D9" fill-opacity="0.6"/>
<circle cx="84.5845" cy="294.54" r="3.28594" fill="#D9D9D9" fill-opacity="0.6"/>
<circle cx="9.66509" cy="332" r="3.28594" fill="#D9D9D9" fill-opacity="0.6"/>
<circle cx="47.1248" cy="332" r="3.28594" fill="#D9D9D9" fill-opacity="0.6"/>
<circle cx="84.5845" cy="332" r="3.28594" fill="#D9D9D9" fill-opacity="0.6"/>
<circle cx="231.795" cy="31.6651" r="3.28594" fill="#D9D9D9" fill-opacity="0.6"/>
<circle cx="269.254" cy="31.6651" r="3.28594" fill="#D9D9D9" fill-opacity="0.6"/>
<circle cx="306.714" cy="31.6651" r="3.28594" fill="#D9D9D9" fill-opacity="0.6"/>
<circle cx="231.795" cy="69.1248" r="3.28594" fill="#D9D9D9" fill-opacity="0.6"/>
<circle cx="269.254" cy="69.1248" r="3.28594" fill="#D9D9D9" fill-opacity="0.6"/>
<circle cx="306.714" cy="69.1248" r="3.28594" fill="#D9D9D9" fill-opacity="0.6"/>
<circle cx="231.795" cy="106.585" r="3.28594" fill="#D9D9D9" fill-opacity="0.6"/>
<circle cx="269.254" cy="106.585" r="3.28594" fill="#D9D9D9" fill-opacity="0.6"/>
<circle cx="306.714" cy="106.585" r="3.28594" fill="#D9D9D9" fill-opacity="0.6"/>
<circle cx="119.415" cy="31.6651" r="3.28594" fill="#D9D9D9" fill-opacity="0.6"/>
<circle cx="156.875" cy="31.6651" r="3.28594" fill="#D9D9D9" fill-opacity="0.6"/>
<circle cx="194.335" cy="31.6651" r="3.28594" fill="#D9D9D9" fill-opacity="0.6"/>
<circle cx="119.415" cy="69.1248" r="3.28594" fill="#D9D9D9" fill-opacity="0.6"/>
<circle cx="156.875" cy="69.1248" r="3.28594" fill="#D9D9D9" fill-opacity="0.6"/>
<circle cx="194.335" cy="69.1248" r="3.28594" fill="#D9D9D9" fill-opacity="0.6"/>
<circle cx="119.415" cy="106.585" r="3.28594" fill="#D9D9D9" fill-opacity="0.6"/>
<circle cx="156.875" cy="106.585" r="3.28594" fill="#D9D9D9" fill-opacity="0.6"/>
<circle cx="194.335" cy="106.585" r="3.28594" fill="#D9D9D9" fill-opacity="0.6"/>
<circle cx="119.415" cy="144.701" r="3.28594" fill="#D9D9D9" fill-opacity="0.6"/>
<circle cx="156.875" cy="144.701" r="3.28594" fill="#D9D9D9" fill-opacity="0.6"/>
<circle cx="194.335" cy="144.701" r="3.28594" fill="#D9D9D9" fill-opacity="0.6"/>
<circle cx="119.415" cy="182.161" r="3.28594" fill="#D9D9D9" fill-opacity="0.6"/>
<circle cx="156.875" cy="182.161" r="3.28594" fill="#D9D9D9" fill-opacity="0.6"/>
<circle cx="194.335" cy="182.161" r="3.28594" fill="#D9D9D9" fill-opacity="0.6"/>
<circle cx="119.415" cy="219.621" r="3.28594" fill="#D9D9D9" fill-opacity="0.6"/>
<circle cx="156.875" cy="219.621" r="3.28594" fill="#D9D9D9" fill-opacity="0.6"/>
<circle cx="194.335" cy="219.621" r="3.28594" fill="#D9D9D9" fill-opacity="0.6"/>
<circle cx="231.795" cy="144.701" r="3.28594" fill="#D9D9D9" fill-opacity="0.6"/>
<circle cx="269.254" cy="144.701" r="3.28594" fill="#D9D9D9" fill-opacity="0.6"/>
<circle cx="306.714" cy="144.701" r="3.28594" fill="#D9D9D9" fill-opacity="0.6"/>
<circle cx="231.795" cy="182.161" r="3.28594" fill="#D9D9D9" fill-opacity="0.6"/>
<circle cx="269.254" cy="182.161" r="3.28594" fill="#D9D9D9" fill-opacity="0.6"/>
<circle cx="306.714" cy="182.161" r="3.28594" fill="#D9D9D9" fill-opacity="0.6"/>
<circle cx="231.795" cy="219.621" r="3.28594" fill="#D9D9D9" fill-opacity="0.6"/>
<circle cx="269.254" cy="219.621" r="3.28594" fill="#D9D9D9" fill-opacity="0.6"/>
<circle cx="306.714" cy="219.621" r="3.28594" fill="#D9D9D9" fill-opacity="0.6"/>
<circle cx="231.795" cy="257.081" r="3.28594" fill="#D9D9D9" fill-opacity="0.6"/>
<circle cx="269.254" cy="257.081" r="3.28594" fill="#D9D9D9" fill-opacity="0.6"/>
<circle cx="306.714" cy="257.081" r="3.28594" fill="#D9D9D9" fill-opacity="0.6"/>
<circle cx="231.795" cy="294.54" r="3.28594" fill="#D9D9D9" fill-opacity="0.6"/>
<circle cx="269.254" cy="294.54" r="3.28594" fill="#D9D9D9" fill-opacity="0.6"/>
<circle cx="306.714" cy="294.54" r="3.28594" fill="#D9D9D9" fill-opacity="0.6"/>
<circle cx="231.795" cy="332" r="3.28594" fill="#D9D9D9" fill-opacity="0.6"/>
<circle cx="269.254" cy="332" r="3.28594" fill="#D9D9D9" fill-opacity="0.6"/>
<circle cx="306.714" cy="332" r="3.28594" fill="#D9D9D9" fill-opacity="0.6"/>
<circle cx="119.415" cy="257.081" r="3.28594" fill="#D9D9D9" fill-opacity="0.6"/>
<circle cx="156.875" cy="257.081" r="3.28594" fill="#D9D9D9" fill-opacity="0.6"/>
<circle cx="194.335" cy="257.081" r="3.28594" fill="#D9D9D9" fill-opacity="0.6"/>
<circle cx="119.415" cy="294.54" r="3.28594" fill="#D9D9D9" fill-opacity="0.6"/>
<circle cx="156.875" cy="294.54" r="3.28594" fill="#D9D9D9" fill-opacity="0.6"/>
<circle cx="194.335" cy="294.54" r="3.28594" fill="#D9D9D9" fill-opacity="0.6"/>
<circle cx="119.415" cy="332" r="3.28594" fill="#D9D9D9" fill-opacity="0.6"/>
<circle cx="156.875" cy="332" r="3.28594" fill="#D9D9D9" fill-opacity="0.6"/>
<circle cx="194.335" cy="332" r="3.28594" fill="#D9D9D9" fill-opacity="0.6"/>
</svg>
