<svg width="20" height="19" viewBox="0 0 20 19" fill="none" xmlns="http://www.w3.org/2000/svg">
<path d="M12.3635 6.86879H18.1818C19.186 6.86879 20 7.70438 20 8.7351V10.6989C20 10.9426 19.9535 11.184 19.8631 11.4095L17.05 18.4222C16.9097 18.7718 16.5777 19 16.2094 19H0.909091C0.407018 19 0 18.5822 0 18.0668V8.7351C0 8.21975 0.407018 7.80196 0.909091 7.80196H4.0744C4.36979 7.80196 4.64675 7.65464 4.8171 7.40693L9.77473 0.197559C9.90427 0.00918019 10.1485 -0.0538164 10.3494 0.0493038L11.9985 0.895716C12.9545 1.38641 13.4483 2.49462 13.1846 3.55791L12.3635 6.86879ZM5.45455 9.28334V17.1337H15.6005L18.1818 10.6989V8.7351H12.3635C11.1774 8.7351 10.3089 7.58821 10.6015 6.40834L11.4226 3.09747C11.4754 2.88481 11.3766 2.66316 11.1854 2.56503L10.5844 2.25655L6.3025 8.48322C6.07532 8.81358 5.78492 9.08439 5.45455 9.28334ZM3.63636 9.66828H1.81818V17.1337H3.63636V9.66828Z" fill="white"/>
</svg>
