<svg width="20" height="19" viewBox="0 0 20 19" fill="none" xmlns="http://www.w3.org/2000/svg">
<path d="M7.63654 12.1312L1.81818 12.1312C0.813998 12.1312 -1.24964e-06 11.2956 -1.16165e-06 10.2649L-9.94005e-07 8.30113C-9.73197e-07 8.05738 0.0465441 7.81597 0.136909 7.59052L2.95 0.57782C3.09027 0.228161 3.42227 4.23198e-07 3.79064 4.56177e-07L19.0909 1.82596e-06C19.593 1.87091e-06 20 0.417784 20 0.933174L20 10.2649C20 10.7803 19.593 11.198 19.0909 11.198L15.9256 11.198C15.6302 11.198 15.3532 11.3454 15.1829 11.5931L10.2253 18.8024C10.0957 18.9908 9.85154 19.0538 9.65063 18.9507L8.00145 18.1043C7.04545 17.6136 6.55173 16.5054 6.81536 15.4421L7.63654 12.1312ZM14.5455 9.71666L14.5455 1.86635L4.39945 1.86634L1.81818 8.30113L1.81818 10.2649L7.63654 10.2649C8.82264 10.2649 9.69109 11.4118 9.39854 12.5917L8.57736 15.9025C8.52464 16.1152 8.62336 16.3368 8.81464 16.435L9.41564 16.7434L13.6975 10.5168C13.9247 10.1864 14.2151 9.91561 14.5455 9.71666ZM16.3636 9.33172L18.1818 9.33172L18.1818 1.86635L16.3636 1.86635L16.3636 9.33172Z" fill="white"/>
</svg>
