<svg width="76" height="75" viewBox="0 0 76 75" fill="none" xmlns="http://www.w3.org/2000/svg">
<g clip-path="url(#clip0_143_1106)">
<path opacity="0.984" fill-rule="evenodd" clip-rule="evenodd" d="M34.9571 -0.0732422C36.9362 -0.0732422 38.9155 -0.0732422 40.8946 -0.0732422C42.0668 0.426186 42.7842 1.30509 43.0469 2.56348C43.0964 15.7958 43.1459 29.0284 43.1954 42.2607C46.8321 38.6719 50.4688 35.083 54.1055 31.4941C55.4556 30.7774 56.7419 30.8751 57.9649 31.7871C59.2863 32.993 60.4986 34.287 61.6016 35.6689C61.9631 36.7402 61.8642 37.7656 61.3048 38.7451C54.155 45.8008 47.0053 52.8564 39.8555 59.9121C38.4834 60.8064 37.1474 60.7575 35.8477 59.7656C28.7969 52.8076 21.7462 45.8496 14.6954 38.8916C13.8857 37.696 13.8362 36.4752 14.5469 35.2295C15.7646 33.7837 17.1251 32.4898 18.629 31.3477C19.9747 30.8415 21.2118 31.037 22.3399 31.9336C25.8282 35.376 29.3165 38.8184 32.8048 42.2607C32.8542 28.833 32.9038 15.4053 32.9532 1.97754C33.352 1.02261 34.02 0.339015 34.9571 -0.0732422Z" fill="black"/>
<path opacity="0.986" fill-rule="evenodd" clip-rule="evenodd" d="M66.2773 74.9267C47.3764 74.9267 28.4752 74.9267 9.57422 74.9267C8.64994 74.5761 7.98197 73.9412 7.57031 73.0224C7.27344 70.9717 7.27344 68.9209 7.57031 66.8701C7.89193 65.9667 8.51041 65.3565 9.42578 65.0391C18.9452 64.8694 28.47 64.7962 38 64.8193C47.4817 64.7959 56.957 64.8691 66.4258 65.0391C67.3412 65.3565 67.9596 65.9667 68.2812 66.8701C68.513 68.6697 68.5624 70.4763 68.4297 72.29C68.1656 73.5507 67.4482 74.4296 66.2773 74.9267Z" fill="black"/>
</g>
<defs>
<clipPath id="clip0_143_1106">
<rect width="76" height="75" fill="white"/>
</clipPath>
</defs>
</svg>
